<?xml version="1.0" encoding="utf-8"?>
<!-- Generator: Adobe Illustrator 22.0.1, SVG Export Plug-In . SVG Version: 6.00 Build 0)  -->
<svg version="1.1" id="Layer_1" xmlns="http://www.w3.org/2000/svg" xmlns:xlink="http://www.w3.org/1999/xlink" x="0px" y="0px"
	 viewBox="0 0 14.4 14.3" style="enable-background:new 0 0 14.4 14.3;" xml:space="preserve">
<style type="text/css">
	.st0{fill:#FFFFFF;}
</style>
<title>icon</title>
<polygon class="st0" points="11.5,4.3 11.4,4.3 3,4.3 3,4.3 7.2,8.1 "/>
<path class="st0" d="M12,4.7L9,7.4l3,2.6C12,9.9,12,9.8,12,9.7V4.9C12,4.9,12,4.8,12,4.7"/>
<path class="st0" d="M2.5,4.7c0,0.1,0,0.2,0,0.2v4.8c0,0.1,0,0.2,0.1,0.2l3-2.6L2.5,4.7z"/>
<polygon class="st0" points="7.2,8.9 5.9,7.8 3,10.3 3,10.3 11.4,10.3 8.5,7.8 "/>
</svg>
