<svg id="Layer_1" data-name="Layer 1" xmlns="http://www.w3.org/2000/svg" viewBox="0 0 24 24"><title>icon</title><path d="M12,0A12,12,0,1,0,24,12,12,12,0,0,0,12,0m5.1,15.6a13.3,13.3,0,0,1-4.9-4.2,13.8,13.8,0,0,1-4.8,4.2,3.5,3.5,0,0,1-4-.4A2.2,2.2,0,0,1,3.2,12a1.4,1.4,0,0,1,2.5.7,1.8,1.8,0,0,0-1-.4.9.9,0,0,0-.9.1,1.3,1.3,0,0,0,.6,1.9c.6.2,1.1,0,1.6-.8a32.1,32.1,0,0,0,1.9-3.1c1-1.3,2-2,3.9-1h.8c1.9-1,3-.3,3.9,1l1.9,3.1c.5.8,1,1,1.6.8a1.3,1.3,0,0,0,.6-1.9.9.9,0,0,0-.9-.1,2.6,2.6,0,0,0-1,.4,1.4,1.4,0,0,1,2.5-.7,2.2,2.2,0,0,1-.1,3.2,3.5,3.5,0,0,1-4,.4" style="fill:red"/></svg>