<svg id="Layer_1" data-name="Layer 1" xmlns="http://www.w3.org/2000/svg" viewBox="0 0 24.3 24.3"><title>icon</title><path d="M12.5,0h-.6C4.7.8.8,4.7,0,11.9v.6c.8,7,4.7,10.9,11.5,11.8h1.2c6.9-.9,10.8-4.8,11.6-11.7V11.5C23.4,4.7,19.5.8,12.5,0M4,19.2a11.2,11.2,0,0,0-.2-2c1.2.6,2.4,2.2,3.8,3a2.9,2.9,0,0,1-3.6-1m2.1-.9a10.2,10.2,0,0,1-1.8-1.8q.3-.2.3-.3c1.2,1.2,2.5,2.2,3.7,3.3-.9.5-1.6-.6-2.2-1.2m.8-.6c-.8-.7-1.2-1.3-1.8-1.9l.3-.4,1.8,1.8c.5.4,1.8,1,1.9,1.4s-2-.7-2.2-.9M20.5,10a5.9,5.9,0,0,1-4.3,5.3c-1.8.6-4,.8-5.2,2.4-.8-.1-1.3,0-1.5.5a8.3,8.3,0,0,1-1.9-1.5c-.4-.2-1.8-1.3-1.8-1.6s.6-.4.8-.9-.1-.7,0-.9.8-.8,1.1-1.2S8.7,7.6,9.9,6c3.4-4.4,11-1.7,10.6,4" style="fill:#fff"/></svg>