<?xml version="1.0" encoding="utf-8"?>
<!-- Generator: Adobe Illustrator 22.0.1, SVG Export Plug-In . SVG Version: 6.00 Build 0)  -->
<svg version="1.1" id="Layer_1" xmlns="http://www.w3.org/2000/svg" xmlns:xlink="http://www.w3.org/1999/xlink" x="0px" y="0px"
	 viewBox="0 0 14.4 14.3" style="enable-background:new 0 0 14.4 14.3;" xml:space="preserve">
<style type="text/css">
	.st0{fill:#FFFFFF;}
</style>
<title>icon</title>
<path class="st0" d="M10.7,3.1H3.5c-0.3,0-0.6,0.3-0.6,0.6V11c0,0.3,0.3,0.6,0.6,0.6h7.2c0.3,0,0.6-0.3,0.6-0.6c0,0,0,0,0,0V3.7
	C11.3,3.4,11,3.1,10.7,3.1C10.7,3.1,10.7,3.1,10.7,3.1 M5.4,10.2H4.2V6.4h1.3V10.2z M4.8,5.9L4.8,5.9c-0.4,0-0.7-0.3-0.7-0.7
	c0-0.4,0.3-0.7,0.7-0.7c0.4,0,0.7,0.3,0.7,0.7C5.5,5.6,5.2,5.8,4.8,5.9 M10,10.2H8.8v-2c0-0.5-0.2-0.9-0.6-0.9
	c-0.3,0-0.6,0.2-0.7,0.5c0,0.1,0,0.2,0,0.3v2.1H6.1c0,0,0-3.5,0-3.8h1.3v0.5c0.2-0.4,0.7-0.7,1.2-0.6C9.4,6.2,10,6.8,10,8L10,10.2z
	 M7.4,6.9L7.4,6.9z"/>
</svg>
