<svg id="Layer_2" data-name="Layer 2" xmlns="http://www.w3.org/2000/svg" viewBox="0 0 141.1 96.1"><title>logo</title><path d="M118.6,48a48,48,0,1,1-48-48,48,48,0,0,1,48,48" style="fill:#fff"/><path d="M93,40.5h-.2l-3.9-2.1L85,36.1V22.3H83.5a8.5,8.5,0,0,0-2.3.3,29.6,29.6,0,0,0-3.1,1.5l-1.1.6-6.4,3.2L62,23.4l-.6-.3V26l-3.3-2-6.7-4.2-.6-.4v.8c0,5.2,0,15.2-.1,23.1s0,11.4.1,12.1h-.1v7.1h5.4l.3,11.7v.4H93V68.8h0V40.5ZM80,56.4h0a3.6,3.6,0,0,0,3.2,2.4,3.7,3.7,0,0,0,3.4-2.5c.5-1.4,0-2.8-1.6-4V50.5a5.2,5.2,0,0,1,3.5,5.2,5.2,5.2,0,0,1-10.3-.3,5,5,0,0,1,3.5-4.9v1.8l-.6.4A3.5,3.5,0,0,0,80,56.4Zm1.7-30.9v8.7l-8.6-4.6ZM53.1,23.8l4.1,2.5L63.1,30l.6.4V27.1l9.8,5.4L81.7,37v4.6L62.4,30.9l-.6-.3v3.7l-8.7-5.5ZM90.8,72.4h-32V62.7H72.1V57.4H69.8v3H53.2V54.3h6.7a2.8,2.8,0,0,0-.1.9,3.1,3.1,0,1,0,6.2,0,2.9,2.9,0,0,0-.2-.9h7.4l-1.1-.8c-2.9-2-16-2-18.7.1l-.2.2V46.4H78.9v1.5c-3.7,2.6-5,6.1-3.8,10.3a8,8,0,0,0,6.2,5.6l1.2.2h.7A8.3,8.3,0,0,0,90.8,60ZM61.5,55.3a1.2,1.2,0,0,1,1.2-1.2,1.2,1.2,0,0,1,1.2,1.2,1.2,1.2,0,0,1-1.2,1.1A1.1,1.1,0,0,1,61.5,55.3Zm29.3-8.6-2.3-1.3L85,43.5V38.9l4.4,2.3,1.4.8Z" style="fill:#d8d8d8"/><path d="M90.9,38.4h-.2l-3.9-2.2-4-2.1V20.2H81.4a7.9,7.9,0,0,0-2.3.4L76,22.1l-1.1.6L68.4,26l-8.5-4.7-.6-.4v3L56,21.8l-6.7-4.1-.6-.4V18c0,5.3,0,15.2-.1,23.2V53.3h0v7.1H54c.1,3.9.1,7.8.2,11.7v.4H90.9V66.7h-.1c.1-9.5.1-28.1.1-28.1Zm-13,15.9h0A3.3,3.3,0,0,0,81,56.6a3.7,3.7,0,0,0,3.5-2.4c.5-1.4-.1-2.8-1.6-4V48.3c1.9.5,3.6,2.9,3.5,5.3a5.3,5.3,0,0,1-5.3,4.8A5.2,5.2,0,0,1,76,53.3a5,5,0,0,1,3.6-4.9v1.8l-.6.4A3.4,3.4,0,0,0,77.9,54.3Zm1.6-31v8.8L71,27.5ZM51,21.7l4.1,2.5L61,27.9l.6.3V25l9.7,5.3,8.2,4.5v4.6L60.3,28.8l-.6-.4v3.8L51,26.7ZM88.6,70.3H56.7V60.6H70V55.3H67.7v2.9H51v-6h6.8a2.4,2.4,0,0,0-.2.9,3.2,3.2,0,0,0,6.3,0,3.6,3.6,0,0,0-.2-1h7.4L70,51.4c-2.9-2.1-16-2-18.7,0l-.3.2V44.3H76.8v1.4C73,48.3,71.7,51.9,73,56a7.9,7.9,0,0,0,6.2,5.7l1.2.2h.7a8.3,8.3,0,0,0,7.6-4C88.6,62,88.6,66.1,88.6,70.3ZM59.4,53.1A1.1,1.1,0,0,1,60.6,52a1.1,1.1,0,0,1,1.1,1.1,1.1,1.1,0,0,1-1.1,1.2A1.2,1.2,0,0,1,59.4,53.1Zm29.3-8.5-2.4-1.3-3.4-1.9V36.8l4.3,2.3,1.5.8Z" style="fill:#020202"/><path d="M135.1,63.9l-.7-.7a1,1,0,0,1,0-1.4,18.2,18.2,0,0,0,4.7-12.2,18,18,0,0,0-4.9-12.5,1,1,0,0,1,0-1.4h0a1,1,0,0,1,1.4,0,20,20,0,0,1,5.5,13.9,19.8,19.8,0,0,1-6,14.3m.3-14.2a15.6,15.6,0,0,0-1.5-6.7,1,1,0,0,0-1.3-.5h-.1a1.1,1.1,0,0,0-.4,1.3,13.7,13.7,0,0,1,.2,11.2,1.1,1.1,0,0,0,.4,1.3h.1a1,1,0,0,0,1.3-.5,16.8,16.8,0,0,0,1.3-6.2" style="fill:#fff"/><path d="M6,35l.7.7a1,1,0,0,1,0,1.4A18.3,18.3,0,0,0,2,49.4,18,18,0,0,0,6.9,61.8a1,1,0,0,1,0,1.4h0a1,1,0,0,1-1.4,0A19.6,19.6,0,0,1,0,49.4,19.9,19.9,0,0,1,6,35M5.7,49.3a17,17,0,0,0,1.4,6.6,1.1,1.1,0,0,0,1.4.5h.1A1,1,0,0,0,9,55.1a14.8,14.8,0,0,1-1.3-5.8,14.6,14.6,0,0,1,1.1-5.5.9.9,0,0,0-.4-1.2H8.3A1,1,0,0,0,7,43a16.9,16.9,0,0,0-1.3,6.3" style="fill:#fff"/></svg>